<?xml version="1.0" encoding="utf-8"?>
<!-- Generator: Adobe Illustrator 18.1.0, SVG Export Plug-In . SVG Version: 6.00 Build 0)  -->
<!DOCTYPE svg PUBLIC "-//W3C//DTD SVG 1.1//EN" "http://www.w3.org/Graphics/SVG/1.1/DTD/svg11.dtd">
<svg version="1.1" id="Layer_1" xmlns="http://www.w3.org/2000/svg" xmlns:xlink="http://www.w3.org/1999/xlink" x="0px" y="0px"
	 viewBox="10.6 462.3 594.7 70.9" enable-background="new 10.6 462.3 594.7 70.9" xml:space="preserve">
<g>
	<g>
		<path fill="#0A304E" d="M41.5,533c-10.1-0.4-20.3-0.4-30.8,0v-2.3c5,0,8.3-1.6,9.3-4.7c0.4-1.3,0.7-5,0.7-11.7v-32.9
			c0-6.7-0.4-10.3-0.7-11.7c-1-2.9-4.2-4.7-9.3-4.7v-2.7c10.1,0.4,20.3,0.4,30.8,0v2.7c-5,0-8.3,1.6-9.3,4.7
			c-0.4,1.3-0.7,5-0.7,11.7v32.9c0,6.7,0.4,10.3,0.7,11.7c1,2.9,4.2,4.7,9.3,4.7V533z"/>
		<path fill="#0A304E" d="M105.7,472.2c-2.1,0.4-3.4,0.4-4,0.7c-1.3,0.4-2.1,1.3-2.7,2.9c-1.3,3.6-1.6,10.9-1.6,22
			c0,5,0,10.9,0.4,18.3c0.4,7.4,0.4,10.9,0.4,11.4h-2.3l-38.5-47.3l-0.4,0.4v28.9c0,5.6,0.4,9,0.7,10.3c1,2.7,3.6,4.2,8,5v2.1
			c-6.3,0-12.6,0-18.9,0v-2.1c4-0.4,6.7-2.1,7.6-4.7c0.4-1,0.4-4,0.4-10.1v-32.7c-2.3-3.4-5.3-5-9-5V470c5.3,0,10.3,0,14.6,0
			L96,513.8v-24.4c0-0.7,0-2.1,0-3.4c0-1.3,0-2.3,0-2.9c0-2.9-0.4-5.3-1.3-6.9c-1.3-2.1-3.4-3.4-6.9-3.6v-2.3c6.1,0,12,0,18.3,0v2.1
			h-0.4V472.2z"/>
		<path fill="#0A304E" d="M165.2,499.4c0,8.7-2.7,15.7-8,20.3c-5,4.2-12,6.7-21,6.7h-26.2v-2.1c3.4,0,5.3-0.7,6.7-2.3
			c0.7-1.3,1.3-3.4,1.3-6.1c0-0.7,0-1.3,0-2.7c0-1.3,0-2.3,0-2.9v-25.1c0-5.3,0-8.3-0.4-9.3c-1-2.7-3.4-3.6-7.6-3.6v-2.3h24.3
			c9,0,16.6,2.7,22.3,7.6C162.2,483.1,165.2,490,165.2,499.4z M154.5,500.7c0-9-1.6-15.7-4.7-20.3c-3.6-5.3-9.6-8-18.3-8
			c-2.7,0-4.2,0.4-5,0.7l-0.7,2.7v38.1c0,4,0.7,6.3,2.3,8c1.6,1.3,4.2,2.1,8.3,2.1c6.7,0,11.4-2.3,14.3-6.9
			C153.6,513.3,154.5,507.7,154.5,500.7z"/>
		<path fill="#0A304E" d="M224,497.7c0,8.7-2.7,15.7-8,21c-5.3,5.6-11.7,8.3-19.7,8.3c-7.4,0-14-2.7-19.3-8
			c-5.3-5.6-8.3-12.3-8.3-20.6c0-8.4,2.7-14.9,8.3-21c5.3-5.6,12-8.3,19.3-8.3c7.4,0,13.6,2.7,18.9,8.3
			C221.4,482.7,224,489.4,224,497.7z M214.8,498c0-7.4-1.3-13.4-4-18c-3.4-5.6-8-8.7-14-8.7c-6.1,0-10.7,2.9-14,8.7
			c-2.7,5-4,10.9-4,18c0,7.4,1.3,13.6,4,18.3c3.4,5.6,8,8.3,14.3,8.3c6.1,0,10.7-2.9,13.6-8.7C213.5,511.2,214.8,505.3,214.8,498z"
			/>
		<path fill="#0A304E" d="M283.1,481.4c0,12.6-9.3,18.9-27.9,18.9c-2.1,0-4,0-6.3,0v13.6c0,6.1,0,9.3,0,9.3c0.4,2.7,1,4.2,2.7,5.6
			c1.6,1.3,4.2,1.6,8.3,2.1v2.3c-10.7-0.4-21.2-0.4-31.6,0v-2.3c4,0,6.7-1,8.3-2.7c1-1.3,1.6-4,1.6-7.6c0-0.7,0-1.6,0-2.9
			c0-1.3,0-2.7,0-3.4v-32.7c0-6.7-0.4-10.3-0.7-11.4c-1-2.9-4-4.2-9.3-4.2v-2.7h30.8c6.3,0,12,1.3,16.3,4.2
			C280.5,470.5,283.1,475.1,283.1,481.4z M271.2,481.4c0-10.3-5-15.7-14.9-15.7c-3.4,0-5,0-5.6,0.4c-1,0.4-1.6,2.1-1.6,4.7v26.3
			c4.7,0.4,6.7,0.4,6.1,0.4C265.9,497.7,271.2,492.3,271.2,481.4z"/>
		<path fill="#0A304E" d="M342.4,526.1c-5,0-9.6,0-14,0l-17.8-22.3c-1.3-1.6-2.3-2.7-2.9-2.9c-0.7-0.4-2.1-0.7-4-0.7v11.4
			c0,5.3,0.4,8.3,0.7,9.3c1,2.3,3.4,3.6,7.4,3.6v2.1c-7.6,0-15.9,0-24.6,0v-2.1c4.2,0,6.7-1.3,7.6-4c0.4-1,0.4-4,0.4-9.6v-25
			c0-5.6,0-8.7-0.4-9.6c-1-2.7-3.4-4-7.6-4v-2.1H312c12.6,0,19.3,4.7,19.3,14c0,4.2-1.6,7.6-4.7,10.3c-2.7,2.3-6.3,4-10.7,4.2
			c4,4.7,7.6,9.6,11.4,14.3c6.1,6.9,10.7,10.7,14.6,11.4L342.4,526.1L342.4,526.1z M322.1,485.1c0-5-1.3-8.3-4.2-10.3
			c-2.3-1.6-6.1-2.7-10.9-2.7c-1.3,0-2.1,0.4-2.3,0.7c-0.4,0.4-0.4,1.3-0.4,2.7v22.3c6.3,0,10.7-0.7,13-1.6
			C320.5,494.4,322.1,490.7,322.1,485.1z"/>
		<path fill="#0A304E" d="M393.4,512.3l-1,13.6h-45.5v-2.1c4,0,6.7-1.3,7.6-4c0.4-1,0.7-4.2,0.7-9.6v-25c0-5.3-0.4-8.7-0.7-9.6
			c-1-2.7-3.4-4-7.6-4v-1.6h41.5v12.6h-2.1c-0.7-4.7-2.3-7.6-4.7-9c-1.6-1-5.3-1.6-10.3-1.6h-6.1c-1,0-1.3,0-1.6,0
			c-0.2,0-0.7,0.7-0.7,1.3v22.3c4.7,0,7.6-0.7,9.6-2.1c2.3-1.6,3.6-4.2,4-8.3h2.1c0,7.6,0,14.9,0,22h-2.1c-0.7-4-2.1-6.7-4.2-8
			c-1.6-1-4.7-1.3-9.3-1.3v14.6c0,4.2,0.7,7.4,2.3,8.7c1.6,1.3,4.7,2.3,9,2.3c5.3,0,9-0.7,10.9-2.1c2.9-1.6,4.7-4.7,5-9.6h2.9v0.2
			H393.4L393.4,512.3z"/>
		<path fill="#0A304E" d="M466.4,526.1c-8.7,0-17,0-25.2,0V524c4-0.4,6.3-1,6.9-2.1c0.7-1,1-3.4,1-7.4v-36.9l0,0
			c-7.4,17.6-14,33.5-20.3,47.8h-0.7l-20.6-47.8l0,0v35.6c0,3.4,0.4,6.1,1.3,7.4c1.3,2.1,3.4,2.9,6.7,2.9v2.1c-6.3,0-12.3,0-18.3,0
			v-2.1c5,0,7.6-2.7,7.6-7.6v-36.2c0-3.4-0.7-5.6-1.6-6.7c-1-1-2.9-1.6-6.3-1.6v-1.3c5.6,0.4,10.9,0.4,15.9,0l18.6,43.2l18-43.6
			c5,0.4,10.3,0.4,16.3,0v2.1c-4,0-6.3,1-7.4,2.9c-0.4,1-0.7,4-0.7,8.7V515c0,4,0.4,6.3,1,7.4c0.7,1,2.9,1.3,6.9,2.1L466.4,526.1
			L466.4,526.1z"/>
		<path fill="#0A304E" d="M495.4,526.1c-8,0-16.3,0-24.6,0V524c4,0,6.7-1.3,7.4-3.6c0.4-1,0.7-4,0.7-9.3v-26.3
			c0-5.3-0.4-8.3-0.7-9.3c-0.7-2.3-3.4-3.6-7.4-3.6v-1.6c8,0,16.3,0,24.6,0v2.1c-4,0-6.7,1.3-7.4,3.6c-0.4,1-0.7,4-0.7,9.3v26.3
			c0,5.3,0.4,8.3,0.7,9.3c1,2.3,3.4,3.6,7.4,3.6V526.1z"/>
		<path fill="#0A304E" d="M545.9,512.3l-1,13.6h-45.5v-2.1c4,0,6.7-1.3,7.6-4c0.4-1,0.7-4.2,0.7-9.6v-25c0-5.3-0.4-8.7-0.7-9.6
			c-1-2.7-3.4-4-7.6-4v-1.6H541v12.6h-2.1c-0.7-4.7-2.3-7.6-4.7-9c-1.6-1-5.3-1.6-10.3-1.6h-6.1c-1,0-1.3,0-1.6,0
			c-0.4,0-0.7,0.7-0.7,1.3v22.3c4.7,0,7.6-0.7,9.6-2.1c2.3-1.6,3.6-4.2,4-8.3h2.1c0,7.6,0,14.9,0,22h-2.1c-0.7-4-2.1-6.7-4.2-8
			c-1.6-1-4.7-1.3-9.3-1.3v14.6c0,4.2,0.7,7.4,2.3,8.7s4.7,2.3,9,2.3c5.3,0,9-0.7,10.9-2.1c2.9-1.6,4.7-4.7,5-9.6h2.9v0.2H545.9
			L545.9,512.3z"/>
		<path fill="#0A304E" d="M605.2,526.1c-5,0-9.6,0-13.6,0l-18-22.3c-1.3-1.6-2.3-2.7-2.9-2.9c-0.7-0.4-2.1-0.7-4-0.7v11.4
			c0,5.3,0.4,8.3,0.7,9.3c1,2.3,3.4,3.6,7.4,3.6v2.1c-7.6,0-15.9,0-24.6,0v-2.1c4.2,0,6.7-1.3,7.6-4c0.4-1,0.4-4,0.4-9.6v-25
			c0-5.6,0-8.7-0.4-9.6c-1-2.7-3.4-4-7.6-4v-2.1h25.2c12.6,0,19.3,4.7,19.3,14c0,4.2-1.6,7.6-4.7,10.3c-2.7,2.3-6.3,4-10.7,4.2
			c4,4.7,7.6,9.6,11.4,14.3c6.1,6.9,10.7,10.7,14.6,11.4L605.2,526.1L605.2,526.1z M584.8,485.1c0-5-1.3-8.3-4.2-10.3
			c-2.3-1.6-6.1-2.7-10.9-2.7c-1.3,0-2.1,0.4-2.3,0.7c-0.4,0.4-0.4,1.3-0.4,2.7v22.3c6.3,0,10.7-0.7,13-1.6
			C583.1,494.4,584.8,490.7,584.8,485.1z"/>
	</g>
</g>
</svg>
